<svg viewBox="0 -10 511.99914 511" xmlns="http://www.w3.org/2000/svg"><path d="m396.921875 264.132812c11.21875-41.113281-12.351563-84.304687-53.003906-97.101562-9.441407-2.972656-19-4.101562-28.304688-3.59375-16.808593.910156-33.246093-4.734375-46.21875-15.464844-29.019531-23.992187-70.171875-31.160156-107.035156-15.054687-31.085937 13.582031-52.101563 40.648437-59.1875 71.34375-5.550781 24.035156-20.207031 44.910156-40.890625 58.351562-24.925781 16.199219-43.933594 41.605469-51.429688 72.789063-15.546874 64.652344 24.265626 129.660156 88.914063 145.207031 29.78125 7.15625 59.632813 2.570313 84.691406-10.777344 16.457031-8.765625 35.726563-10.722656 53.386719-4.738281 12.941406 4.390625 26.933594 6.359375 41.394531 5.40625 58.542969-3.855469 103.492188-54.777344 99.976563-113.339844-.480469-7.964844-1.8125-15.671875-3.90625-23.035156-4.234375-14.882812-.734375-30.773438 8.539062-43.164062 5.839844-7.804688 10.34375-16.828126 13.074219-26.828126zm0 0" fill="#b7a39a"/><path d="m162.363281 132.917969c-31.085937 13.582031-52.105469 40.648437-59.191406 71.34375-5.550781 24.039062-20.207031 44.910156-40.890625 58.351562-24.925781 16.203125-43.933594 41.605469-51.429688 72.789063-15.542968 64.652344 24.265626 129.664062 88.914063 145.207031 29.339844 7.050781 58.746094 2.710937 83.574219-10.183594-6.925782-11.496093-15.167969-23.414062-24.972656-35.621093-64.269532-80.011719-15.820313-93.761719 0-184.171876 10.933593-62.488281 48.910156-103.574218 71.320312-122.992187-21.625-5.664063-45.25-4.367187-67.324219 5.277344zm0 0" fill="#a08e87"/><path d="m394.515625 70.707031c-14.558594 18.800781-41.605469 22.242188-60.40625 7.683594-18.804687-14.558594-22.246094-41.601563-7.6875-60.40625 14.558594-18.800781 39.851563-7.847656 58.65625 6.710937 18.800781 14.558594 23.996094 27.207032 9.4375 46.011719zm0 0" fill="#b7a39a"/><path d="m502.800781 134.089844c8.660157 19.644531-17.40625 38.875-38.875 38.875-21.472656 0-26.070312-17.40625-26.070312-38.875s4.597656-38.875 26.070312-38.875c21.46875 0 26.21875 10.175781 38.875 38.875zm0 0" fill="#b7a39a"/><g fill="#898890"><path d="m183.59375 221.175781c0-32.019531-15.929688-60.304687-40.273438-77.417969-20.632812 14.847657-34.621093 36.574219-40.144531 60.507813-5.550781 24.035156-20.207031 44.910156-40.890625 58.351563-12.832031 8.339843-24.097656 19.117187-33.03125 31.867187 16.289063 13.289063 37.09375 21.277344 59.753906 21.277344 52.238282 0 94.585938-42.347657 94.585938-94.585938zm0 0"/><path d="m379.214844 357.167969c-.476563-7.96875-1.8125-15.675781-3.90625-23.035157-4.234375-14.886718-.730469-30.777343 8.539062-43.167968 5.84375-7.804688 10.347656-16.828125 13.078125-26.828125.324219-1.191407.617188-2.382813.882813-3.578125-10.96875-6.695313-23.859375-10.558594-37.648438-10.558594-39.964844 0-72.363281 32.398438-72.363281 72.363281 0 39.964844 32.398437 72.363281 72.363281 72.363281 5.15625 0 10.191406-.550781 15.042969-1.578124 3.308594-11.394532 4.761719-23.511719 4.011719-35.980469zm0 0"/><path d="m183.59375 411.128906c-35.007812 0-63.386719 28.378906-63.386719 63.386719 0 3.140625.238281 6.226563.675781 9.246094 22.542969 1.339843 44.457032-3.742188 63.578126-13.925781 16.457031-8.765626 35.726562-10.722657 53.382812-4.734376 2.871094.972657 5.800781 1.824219 8.765625 2.554688-3.425781-31.777344-30.328125-56.527344-63.015625-56.527344zm0 0"/><path d="m240.039062 329.457031c0 13.992188-11.34375 25.335938-25.335937 25.335938s-25.335937-11.34375-25.335937-25.335938c0-13.992187 11.34375-25.332031 25.335937-25.332031s25.335937 11.339844 25.335937 25.332031zm0 0"/></g><path d="m158.367188 434.804688c-3.664063-4.558594-6.957032-8.894532-9.914063-13.050782-17.035156 11.363282-28.246094 30.75-28.246094 52.765625 0 3.136719.234375 6.226563.675781 9.242188 22.101563 1.316406 43.597657-3.542969 62.453126-13.335938-6.921876-11.496093-15.164063-23.414062-24.96875-35.621093zm0 0" fill="#75747a"/><path d="m146.238281 296.488281c4.570313-13.011719 8.988281-27.925781 12.128907-45.855469 3.945312-22.558593 11.425781-42.339843 20.414062-59.304687-6.457031-19.417969-19.046875-36.03125-35.460938-47.570313-20.632812 14.847657-34.621093 36.574219-40.144531 60.507813-5.550781 24.035156-20.207031 44.910156-40.890625 58.351563-12.832031 8.339843-24.097656 19.117187-33.03125 31.867187 16.289063 13.289063 37.09375 21.277344 59.753906 21.277344 21.511719 0 41.339844-7.179688 57.230469-19.273438zm0 0" fill="#75747a"/><path d="m346.171875 159.878906c-10.089844-3.175781-20.503906-4.5-30.964844-3.933594-14.777343.804688-29.339843-4.082031-41.035156-13.75-32.363281-26.765624-76.355469-32.953124-114.8125-16.152343-31.914063 13.945312-55.652344 42.554687-63.496094 76.53125-5.128906 22.207031-18.507812 41.296875-37.667969 53.75-27.550781 17.90625-46.953124 45.367187-54.636718 77.324219-16.484375 68.570312 25.886718 137.765624 94.457031 154.25 9.882813 2.378906 19.925781 3.550781 29.929687 3.550781 20.792969 0 41.410157-5.074219 60.039063-15 14.832031-7.898438 32.125-9.445313 47.449219-4.25 14.261718 4.835937 29.15625 6.78125 44.296875 5.785156 62.75-4.132813 110.738281-58.535156 106.96875-121.273437-.5-8.367188-1.90625-16.65625-4.179688-24.636719-3.511719-12.351563-.839843-25.699219 7.332031-36.617188 6.578126-8.789062 11.390626-18.664062 14.304688-29.351562 5.941406-21.765625 3.203125-44.757813-7.699219-64.738281-10.910156-19.980469-28.765625-34.714844-50.285156-41.488282zm-165.242187 303.332032c-16.5 8.789062-34.769532 13.261718-53.1875 13.230468-.023438-.640625-2.347657-57.46875 55.851562-57.8125 24.566406-.144531 45.632812 15.800782 53.042969 38.246094-18.292969-5.132812-38.382813-2.886719-55.707031 6.335938zm196.910156-176.742188c-11 14.699219-14.679688 32.855469-9.75 49.710938 6.144531 21.015624 3.324218 41.132812 1.109375 50.394531-9.539063 2.335937-73.90625-2.140625-73.90625-64.210938 0-29.9375 20.273437-55.839843 49.300781-62.984375 4.019531-.988281 6.476562-5.054687 5.488281-9.078125-.988281-4.019531-5.058593-6.472656-9.074219-5.488281-35.746093 8.800781-60.714843 40.691406-60.714843 77.550781 0 44.035157 33.253906 79.988281 83.796875 79.761719-14.234375 33.660156-46.539063 58.335938-85.34375 60.890625-8.617188.566406-17.148438.03125-25.492188-1.582031-6.183594-33.3125-35.214844-57.804688-69.660156-57.804688-39.085938 0-69.917969 26.765625-70.871094 71.785156-3.75-.511718-7.488281-1.203124-11.203125-2.097656-60.527343-14.550781-97.929687-75.632812-83.378906-136.160156 6.785156-28.210938 23.910156-52.449219 48.226563-68.253906 22.441406-14.582032 38.105468-36.941406 44.113281-62.953125 4.902343-21.242188 16.476562-39.589844 32.851562-52.808594 20.609375 16.484375 32.761719 41.53125 32.761719 68.035156 0 48.019531-39.066406 87.085938-87.085938 87.085938-10.582031 0-20.921874-1.878907-30.734374-5.585938-3.875-1.460937-8.203126.492188-9.664063 4.367188-1.464844 3.875.488281 8.203125 4.363281 9.667969 11.511719 4.347656 23.636719 6.550781 36.035156 6.550781 56.292969 0 102.089844-45.796875 102.089844-102.085938 0-29.53125-12.875-57.507812-34.886718-76.796875 2.949218-1.671875 22.570312-12.652344 47.546874-12.652344 21.796876 0 43.304688 7.515626 60.855469 22.027344 14.609375 12.078125 32.855469 18.175782 51.410157 17.171875 8.644531-.46875 17.277343.625 25.644531 3.257813 17.800781 5.605468 32.578125 17.8125 41.621093 34.371094 6.875 12.597656 9.820313 26.628906 8.683594 40.546874-5.179687-2.253906-10.578125-3.953124-16.152344-5.0625-4.0625-.8125-8.011718 1.828126-8.820312 5.890626s1.828125 8.011718 5.894531 8.820312c5.628907 1.121094 11.042969 2.976562 16.160157 5.53125-2.457032 8.042969-6.210938 15.503906-11.214844 22.1875zm0 0"/><path d="m389.667969 18.765625c-8.191407-6.34375-20.738281-14.492187-33.964844-17.273437-14.621094-3.078126-26.800781 1.039062-35.210937 11.902343-17.066407 22.042969-13.019532 53.859375 9.023437 70.925781 9.191406 7.117188 20.082031 10.5625 30.894531 10.5625 15.117188 0 30.085938-6.734374 40.035156-19.585937 20.675782-26.699219 5.101563-44.234375-10.777343-56.53125zm-1.082031 47.347656c-12.003907 15.503907-34.382813 18.351563-49.886719 6.347657-15.503907-12.003907-18.347657-34.378907-6.347657-49.882813 3.691407-4.765625 10.214844-8.277344 20.261719-6.40625 8.183594 1.523437 18.046875 6.847656 27.871094 14.457031 17.253906 13.359375 19.070313 21.316406 8.101563 35.484375zm0 0"/><path d="m509.664062 131.0625c-12.726562-28.859375-19.117187-43.347656-45.738281-43.347656-33.570312 0-33.570312 34.90625-33.570312 46.375 0 11.472656 0 46.375 33.570312 46.375 16.476563 0 34.558594-9.390625 42.992188-22.324219 5.648437-8.664063 6.625-18.28125 2.746093-27.078125zm-15.3125 18.882812c-5.671874 8.703126-19.039062 15.519532-30.425781 15.519532-11.464843 0-18.570312-5.25-18.570312-31.375 0-19.371094 3.109375-31.375 18.570312-31.375 16.324219 0 19.246094 5.453125 32.011719 34.402344 1.839844 4.171874 1.324219 8.371093-1.585938 12.828124zm0 0"/><path d="m214.703125 296.625c-18.105469 0-32.835937 14.730469-32.835937 32.832031 0 18.105469 14.730468 32.835938 32.835937 32.835938s32.832031-14.730469 32.832031-32.835938c0-18.101562-14.726562-32.832031-32.832031-32.832031zm0 50.667969c-9.835937 0-17.835937-8-17.835937-17.832031 0-9.835938 8-17.835938 17.835937-17.835938 9.832031 0 17.832031 8 17.832031 17.835938 0 9.832031-7.996094 17.832031-17.832031 17.832031zm0 0"/></svg>