<?xml version="1.0" encoding="UTF-8" standalone="no"?>
<svg xmlns:svg="http://www.w3.org/2000/svg" xmlns="http://www.w3.org/2000/svg"
   id="svg2" width="1000"  height="800" version="1.0">

  <!-- Pathfinding example, this work is released by it's author in the Public Domain. -->

  <defs id="shapes_and_styles">
    <style type="text/css"><![CDATA[
      .dashed {stroke:#505050; stroke-width:0.25px; stroke-dasharray:5}
      .block {opacity:1; fill:#8397e8; fill-opacity:1; stroke:#000000; stroke-width:5;}
      .labels {font-size:32px; font-style:normal; font-family:Bitstream Vera Sans}

    ]]></style>
    <marker orient="auto" refY="0.0" refX="0.0" id="Arrow1Mend" style="overflow:visible;">
      <path d="M 0.0,0.0 L 5.0,-5.0 L -12.5,0.0 L 5.0,5.0 L 0.0,0.0 z "
         style="fill-rule:evenodd;stroke:#000000;stroke-width:1.0pt;marker-start:none;"
         transform="scale(0.4) rotate(180)" />
    </marker>
  </defs>

  <rect style="opacity:1;fill:none;fill-opacity:1;stroke:#000000;stroke-width:5;stroke-linejoin:miter;stroke-miterlimit:4;stroke-dasharray:none;stroke-dashoffset:0;stroke-opacity:1"
     id="page-boundary" width="1000" height="800" x="0" y="0" />

  <!-- Vertical -->
  <path class="dashed" d="M 100,0 L 100,800" />
  <path class="dashed" d="M 200,0 L 200,800" />
  <path class="dashed" d="M 300,0 L 300,800" />
  <path class="dashed" d="M 400,0 L 400,800" />
  <path class="dashed" d="M 500,0 L 500,800" />
  <path class="dashed" d="M 600,0 L 600,800" />
  <path class="dashed" d="M 700,0 L 700,800" />
  <path class="dashed" d="M 800,0 L 800,800" />
  <path class="dashed" d="M 900,0 L 900,800" />

  <!-- Horizontal -->
  <path class="dashed" d="M 0,100 L 1000,100" />
  <path class="dashed" d="M 0,200 L 1000,200" />
  <path class="dashed" d="M 0,300 L 1000,300" />
  <path class="dashed" d="M 0,400 L 1000,400" />
  <path class="dashed" d="M 0,500 L 1000,500" />
  <path class="dashed" d="M 0,600 L 1000,600" />
  <path class="dashed" d="M 0,700 L 1000,700" />

  <rect class="block" id="block1" width="100" height="500" x="300" y="300" />
  <rect class="block" id="block2" width="500" height="100" x="500" y="100" />
  <rect class="block" id="block3" width="200" height="200" x="600" y="400" />

  <path
     style="fill:none;fill-opacity:0.75;fill-rule:evenodd;stroke:#00f000;stroke-width:5;stroke-linecap:butt;stroke-linejoin:miter;stroke-opacity:1;stroke-miterlimit:4;stroke-dasharray:5,5;stroke-dashoffset:0;marker-mid:url(#Arrow1Mend)"
     d="M 151.28922,646.23014 C 151.91985,200 300,100 400,200 C 500,300 699.01949,254.6819 800,300 C 900,344.87806 900,700 900,700"
     id="pathAB1" />
  <path
     style="fill:none;fill-opacity:0.75;fill-rule:evenodd;stroke:#f00000;stroke-width:5;stroke-linecap:butt;stroke-linejoin:miter;stroke-opacity:1;stroke-miterlimit:4;stroke-dasharray:5,5;stroke-dashoffset:0;marker-mid:url(#Arrow1Mend)"
     d="M 150.00699,644.94791 C 150,200 300,100 400,200 C 500,300 450,550 500,600 C 600,700 900,700 900,700"
     id="pathAB2" />

  <circle cx="150" cy="650" r="50"  id="NodeA"
    style="opacity:1;fill:#ffff00;fill-opacity:1;stroke:#000000;stroke-width:1.25;stroke-opacity:1"/>
  <circle cx="900" cy="700" r="50"  id="NodeB"
    style="opacity:1;fill:#00ffff;fill-opacity:1;stroke:#000000;stroke-width:1.25;stroke-opacity:1"/>

  <text class="labels" x="140" y="660" id="LabelA">A</text>
  <text class="labels" x="890" y="710" id="LabelB">B</text>

</svg>
