<svg id="Layer_1" enable-background="new 0 0 512.01 512.01" height="512" viewBox="0 0 512.01 512.01" width="512" xmlns="http://www.w3.org/2000/svg"><g><path d="m118.003 370.006c-20.376-34.898-36.822-70.672-36.822-113.998-.001-119.679 89.86-218.975 205.488-234.019-9.823-1.275-19.833-1.954-29.997-1.982-130.245-.361-236.67 105.756-236.669 236.001 0 43.327 11.676 83.926 32.053 118.824 10.107 17.31 32.273 23.207 49.815 13.507 5.993-3.314 12.81-7.29 20.381-12.011-1.526-1.98-2.949-4.095-4.249-6.322z" fill="#c6e1f2"/><g fill="#0023c4"><path d="m416.553 56.597c-22.175-17.875-46.947-31.82-73.627-41.451-27.604-9.963-57.33-15.058-86.922-15.14-68.075 0-132.209 26.575-180.638 74.87-48.599 48.465-75.364 112.792-75.363 181.134 0 44.004 11.358 87.414 32.846 125.535 10.966 19.454 31.292 30.396 52.221 30.396 9.979 0 20.098-2.489 29.4-7.73 36.166-20.376 93.746-59.133 162.675-128.062 7.811-7.811 7.811-20.474 0-28.284s-20.474-7.811-28.284 0c-65.726 65.725-120.037 102.347-154.024 121.495-9.599 5.408-21.776 2.063-27.142-7.458-18.116-32.139-27.691-68.756-27.692-105.894 0-57.636 22.589-111.904 63.607-152.81 40.88-40.768 94.972-63.193 152.393-63.193 49.641.138 96.878 16.644 135.446 47.733 8.599 6.931 21.189 5.58 28.123-3.02 6.932-8.598 5.58-21.189-3.019-28.121z"/><path d="m88.654 304.526c3.896 5.528 10.082 8.481 16.366 8.481 3.98 0 8.002-1.186 11.503-3.652 33.394-23.531 68.059-53.195 103.032-88.168 40.113-40.113 71.704-76.72 93.896-108.804 6.283-9.084 4.013-21.542-5.071-27.826-9.084-6.283-21.543-4.013-27.826 5.071-20.828 30.111-50.867 64.858-89.283 103.274-33.359 33.359-66.26 61.538-97.788 83.754-9.029 6.364-11.192 18.841-4.829 27.87z"/><path d="m509.67 221.319c-1.485-10.946-11.561-18.618-22.506-17.131-10.945 1.484-18.615 11.561-17.131 22.506 1.308 9.64 1.97 19.502 1.97 29.312 0 119.103-96.897 216-216 216-10.423 0-21.521-.216-32.059-1.783-10.926-1.622-21.099 5.917-22.724 16.842-1.624 10.926 5.916 21.099 16.842 22.724 13.109 1.949 25.982 2.217 37.941 2.217 68.38 0 132.667-26.629 181.02-74.98 48.352-48.352 74.98-112.639 74.98-181.02 0-11.601-.785-23.272-2.333-34.687z"/><path d="m111.013 206.947c4.582 0 9.188-1.566 12.951-4.769 13.616-11.585 27.463-24.403 41.158-38.099 16.267-16.267 29.028-29.985 40.162-43.171 7.125-8.44 6.061-21.058-2.379-28.184-8.44-7.125-21.059-6.061-28.184 2.379-10.392 12.308-22.429 25.238-37.883 40.692-12.94 12.94-25.993 25.025-38.796 35.919-8.413 7.158-9.429 19.78-2.271 28.193 3.957 4.65 9.581 7.04 15.242 7.04z"/></g><path d="m51.667 512.01c-16.291 0-29.203-4.686-38.536-14.019-11.378-11.377-15.375-27.882-11.878-49.056 1.799-10.898 12.091-18.275 22.992-16.474 10.898 1.8 18.273 12.094 16.474 22.992-1.328 8.038-.606 12.95.697 14.254 1.61 1.61 8.709 3.834 24.048.732 17.152-3.47 39.395-12.473 64.322-26.036 55.736-30.326 118.599-79.195 177.01-137.605 58.41-58.411 107.279-121.274 137.605-177.01 13.563-24.927 22.565-47.169 26.035-64.322 3.103-15.34.878-22.437-.731-24.047-.664-.663-4.271-2.135-12.896-.995-10.953 1.448-21.001-6.256-22.449-17.207s6.256-21.001 17.207-22.449c19.963-2.639 35.58 1.522 46.423 12.367 13.159 13.159 17.08 33.434 11.653 60.262-4.311 21.312-14.44 46.717-30.105 75.509-32.108 59.011-83.41 125.13-144.457 186.177s-127.167 112.349-186.178 144.457c-28.792 15.666-54.197 25.794-75.509 30.105-7.801 1.578-15.048 2.365-21.727 2.365z" fill="#ff5cf3"/></g></svg>