<svg id="Layer_1" enable-background="new 0 0 512.021 512.021" height="512" viewBox="0 0 512.021 512.021" width="512" xmlns="http://www.w3.org/2000/svg"><g><path d="m313.041 455.66-216.306-214.306c-18.73-18.855-18.31-49.645 1.29-67.595 8.069-7.391 17.001-13.789 26.494-19.277-32.344 5.953-64.895 19.371-89.494 41.901-19.599 17.951-20.02 48.74-1.29 67.595l216.306 214.306c18.855 18.73 49.645 18.309 67.595-1.289 3.397-3.71 6.578-7.608 9.567-11.651-5.131-2.273-9.946-5.496-14.162-9.684z" fill="#c6e1f2"/><g fill="#0023c4"><path d="m281.078 331.66c-16.684 16.174-24.989 24.097-33.232 31.293-8.321 7.264-9.177 19.898-1.913 28.22 3.955 4.529 9.5 6.847 15.075 6.847 4.666 0 9.354-1.625 13.145-4.934 8.92-7.788 17.555-16.02 34.768-32.707 7.931-7.688 8.127-20.35.439-28.281-7.69-7.93-20.351-8.125-28.282-.438z"/><path d="m151.558 206.184c-6.552 6.839-11.704 12.017-16.249 16.585-6.036 6.068-10.804 10.861-15.377 16.099-7.264 8.321-6.407 20.956 1.914 28.22 3.792 3.31 8.478 4.934 13.145 4.934 5.575 0 11.121-2.318 15.075-6.848 3.715-4.256 7.862-8.424 13.601-14.193 4.438-4.461 9.961-10.013 16.773-17.123 7.642-7.976 7.371-20.636-.605-28.278-7.974-7.643-20.635-7.372-28.277.604z"/><path d="m493.71 18.146c-16.062-16.021-38.674-21.91-60.492-15.75-41.706 11.776-109.026 41.29-192.9 115.016-13.436 11.81-31.454 17.283-49.442 15.015-27.363-3.45-58.065-1.313-86.452 6.018-32.574 8.412-61.243 23.347-82.907 43.189-13.432 12.302-21.067 29.15-21.499 47.441-.43 18.213 6.688 36.072 19.528 48.998.037.038.075.075.113.112l216.287 214.288c12.557 12.474 29.768 19.547 47.438 19.547.52 0 1.04-.006 1.56-.019 18.291-.432 35.14-8.066 47.441-21.499 19.913-21.741 34.877-50.523 43.274-83.236 7.319-28.511 9.399-59.305 5.858-86.71-2.319-17.948 3.102-35.981 14.872-49.473 72.383-82.97 101.548-150.345 113.268-192.256 6.131-21.921.169-44.605-15.947-60.681zm-22.574 49.909c-10.609 37.938-37.418 99.396-104.888 176.733-19.292 22.114-28.185 51.599-24.4 80.895 5.369 41.557-4.595 100.283-38.96 137.804-4.877 5.326-11.585 8.354-18.887 8.526-7.479.171-14.546-2.635-19.883-7.936l-216.244-214.244c-5.25-5.312-8.043-12.345-7.867-19.814.172-7.302 3.2-14.009 8.526-18.887 37.348-34.207 95.887-44.243 137.338-39.019 29.35 3.702 58.817-5.288 80.854-24.657 78.245-68.777 139.638-95.912 177.362-106.564 11.104-3.136 18.646 2.854 21.374 5.574 5.734 5.72 7.856 13.79 5.675 21.589z"/><circle cx="289.999" cy="225.02" r="25"/></g><path d="m326.999 163.039c.011-13.807 11.212-25.009 25.019-25.019 13.807-.011 24.991 11.174 24.981 24.981-.011 13.807-11.212 25.009-25.019 25.019-13.807.011-24.991-11.174-24.981-24.981zm-259.865 346.215c25.066-8.531 60.444-29.085 61.938-29.956 9.542-5.563 12.767-17.805 7.206-27.348-5.561-9.542-17.804-12.771-27.349-7.21-.332.193-33.425 19.413-54.682 26.647-5.825 1.983-9.771-1.216-11.197-2.682-1.397-1.438-4.421-5.39-2.323-11.023l.517-1.388c7.633-20.504 7.779-20.896 26.789-51.793 5.788-9.408 2.854-21.727-6.554-27.515s-21.726-2.854-27.515 6.554c-20.573 33.438-21.707 35.965-30.207 58.799l-.515 1.383c-6.879 18.469-2.617 38.725 11.123 52.862 9.782 10.065 22.79 15.435 36.215 15.434 5.513-.001 11.096-.906 16.554-2.764z" fill="#ff5cf3"/></g></svg>